HIERARCHY
ROOT Hips
{
	OFFSET 0.00000 0.00000 0.00000
	CHANNELS 6 Xposition Yposition Zposition Zrotation Yrotation Xrotation 
	JOINT LHipJoint
	{
		OFFSET 0 0 0
		CHANNELS 3 Zrotation Yrotation Xrotation
		JOINT LeftHip
		{
			OFFSET 1.24777 -1.64261 0.71711
			CHANNELS 3 Zrotation Yrotation Xrotation
			JOINT LeftKnee
			{
				OFFSET 2.49329 -6.85026 0.00000
				CHANNELS 3 Zrotation Yrotation Xrotation
				JOINT LeftAnkle
				{
					OFFSET 2.36770 -6.50520 0.00000
					CHANNELS 3 Zrotation Yrotation Xrotation
					JOINT LeftToe
					{
						OFFSET 0.14820 -0.40718 2.21395
						CHANNELS 3 Zrotation Yrotation Xrotation
						End Site
						{
							OFFSET 0.00000 -0.00000 1.13491
						}
					}
				}
			}
		}
	}
	JOINT RHipJoint
	{
		OFFSET 0 0 0
		CHANNELS 3 Zrotation Yrotation Xrotation
		JOINT RightHip
		{
			OFFSET -1.18320 -1.64261 0.71711
			CHANNELS 3 Zrotation Yrotation Xrotation
			JOINT RightKnee
			{
				OFFSET -2.46559 -6.77417 0.00000
				CHANNELS 3 Zrotation Yrotation Xrotation
				JOINT RightAnkle
				{
					OFFSET -2.38450 -6.55136 0.00000
					CHANNELS 3 Zrotation Yrotation Xrotation
					JOINT RightToe
					{
						OFFSET -0.17454 -0.47954 2.02925
						CHANNELS 3 Zrotation Yrotation Xrotation
						End Site
						{
							OFFSET -0.00000 -0.00000 1.05076
						}
					}
				}
			}
		}
	}
	JOINT lowerback
	{
		OFFSET 0 0 0
		CHANNELS 3 Zrotation Yrotation Xrotation
		JOINT Chest
		{
			OFFSET -0.02305 1.98660 0.00319
			CHANNELS 3 Zrotation Yrotation Xrotation
			JOINT Chest2
			{
				OFFSET -0.00718 1.99033 -0.00533
				CHANNELS 3 Zrotation Yrotation Xrotation
				JOINT lowerneck
				{
					OFFSET 0 0 0
					CHANNELS 3 Zrotation Yrotation Xrotation
					JOINT Neck
					{
						OFFSET 0.00095 1.61015 0.10698
						CHANNELS 3 Zrotation Yrotation Xrotation
						JOINT Head
						{
							OFFSET -0.01060 1.59924 0.01317
							CHANNELS 3 Zrotation Yrotation Xrotation
							End Site
							{
								OFFSET -0.00458 1.63304 -0.00592
							}
						}
					}
				}
				JOINT LeftCollar
				{
					OFFSET 0 0 0
					CHANNELS 3 Zrotation Yrotation Xrotation
					JOINT LeftShoulder
					{
						OFFSET 3.05381 1.47088 -0.01697
CHANNELS 3 Zrotation Xrotation Yrotation
						JOINT LeftElbow
						{
OFFSET 0 -4.251060 0.000000
CHANNELS 3 Zrotation Xrotation Yrotation
							JOINT LeftWrist
							{
OFFSET 0 -3.275920 0.000000
CHANNELS 3 Zrotation Xrotation Yrotation
								JOINT lhand
								{
									OFFSET 0 0 0
CHANNELS 3 Zrotation Xrotation Yrotation
									JOINT LFingers
									{
OFFSET 0 -0.657810 0.000000
CHANNELS 3 Zrotation Xrotation Yrotation
										End Site
										{
OFFSET 0 -0.530340 0.000000
										}
									}
								}
								JOINT LThumb
								{
OFFSET 0 0.000000 0.000000
CHANNELS 3 Zrotation Xrotation Yrotation
									End Site
									{
OFFSET 0 -0.538440 0.538440
									}
								}
							}
						}
					}
				}
				JOINT RightCollar
				{
					OFFSET 0 0 0
					CHANNELS 3 Zrotation Yrotation Xrotation
					JOINT RightShoulder
					{
						OFFSET -2.83695 1.31619 -0.22674
CHANNELS 3 Zrotation Xrotation Yrotation
						JOINT RightElbow
						{
OFFSET 0 -4.460730 0.000000
CHANNELS 3 Zrotation Xrotation Yrotation
							JOINT RightWrist
							{
OFFSET 0 -3.444160 0.000000
CHANNELS 3 Zrotation Xrotation Yrotation
								JOINT rhand
								{
									OFFSET 0 0 0
CHANNELS 3 Zrotation Xrotation Yrotation
									JOINT RFingers
									{
OFFSET 0 -0.616510 0.000000
CHANNELS 3 Zrotation Xrotation Yrotation
										End Site
										{
OFFSET 0 -0.497050 0.000000
										}
									}
								}
								JOINT RThumb
								{
OFFSET 0 0.000000 0.000000
CHANNELS 3 Zrotation Xrotation Yrotation
									End Site
									{
OFFSET 0 -0.504640 0.504640
									}
								}
							}
						}
					}
				}
			}
		}
	}
}
MOTION
Frames: 4
Frame Time: 0.008333333333333333
19.595453 16.400147 6.159799 -8.337434 -6.682985 8.388983 0.000000 0.000000 0.000000 -9.155074 -1.861284 -44.710330 4.095403 12.286253 36.752244 -0.598264 15.693300 -14.298110 5.633976 14.063912 43.494123 0.000000 0.000000 0.000000 15.650922 3.795376 -22.312737 -11.301977 -18.074058 63.751626 -0.418251 20.402726 31.629817 -2.002078 -8.868480 25.386111 1.146873 2.083232 4.923208 3.212322 2.880305 1.393510 2.482948 1.435212 -1.434518 6.122462 2.019358 -10.094770 -5.974753 2.716563 15.352129 -2.692813 1.185227 6.489003 0.000000 0.000000 0.000000 -1.158089 25.964894 -30.963346 42.633521 -49.528933 20.429233 2.125732 -8.887375 -11.853402 0.000000 0.000000 0.000000 -7.125000 0.000000 0.000000 -21.953993 40.788526 -2.411393 0.000000 0.000000 0.000000 -26.423909 -12.100477 11.346247 -39.884300 -47.985005 -18.358299 -73.107448 62.096240 22.873798 0.000000 0.000000 0.000000 7.125000 0.000000 0.000000 -85.043018 65.635144 59.441770
19.683644 16.429667 6.380106 -6.798521 -7.511788 8.558124 0.000000 0.000000 0.000000 -10.355059 -3.675711 -43.565505 4.169062 12.381965 37.096978 -0.493002 15.199821 -15.121482 5.739393 14.170931 43.926592 0.000000 0.000000 0.000000 12.056815 8.958130 -26.964743 -12.993162 -18.777107 69.101624 -1.744021 17.939756 36.725669 -2.014449 -8.895716 25.469877 -0.327394 2.557161 6.017437 2.612711 3.428857 1.825441 2.616565 1.709024 -1.668547 6.115473 2.052055 -10.095132 -6.246046 2.765190 14.298608 -2.766154 1.189094 6.161861 0.000000 0.000000 0.000000 1.479725 26.412598 -31.409394 50.720724 -53.261312 26.756325 5.079218 -4.654599 -8.903270 0.000000 0.000000 0.000000 -7.125000 0.000000 0.000000 -18.636420 38.257832 -3.213403 0.000000 0.000000 0.000000 -23.619475 -10.741433 10.315727 -45.781207 -51.133382 -22.849045 -82.728697 83.501630 26.839433 0.000000 0.000000 0.000000 7.125000 0.000000 0.000000 -106.105355 -65.453258 -133.353533
19.753055 16.457952 6.597441 -5.317384 -7.895366 8.528494 0.000000 0.000000 0.000000 -11.721181 -5.278220 -42.300335 4.188615 12.407347 37.188533 -0.416292 14.849993 -15.698274 5.747786 14.179485 43.961049 0.000000 0.000000 0.000000 8.552133 14.220171 -31.301434 -14.318723 -19.207815 73.175545 -2.013382 16.517621 36.890829 -1.672829 -8.148344 23.165813 -1.681768 2.933832 7.126660 1.968543 3.818387 2.327511 2.638090 1.899722 -1.829401 6.010408 2.076943 -9.962915 -6.188532 2.770644 13.229943 -2.722658 1.195333 5.801577 0.000000 0.000000 0.000000 4.702798 26.455089 -30.874505 60.325337 -56.394562 34.612309 13.406017 -0.306484 -4.054040 0.000000 0.000000 0.000000 -7.125000 0.000000 0.000000 -10.837124 33.992007 -2.969065 0.000000 0.000000 0.000000 -20.872591 -8.898998 10.841287 -52.137370 -53.821252 -27.890526 -76.525784 70.263395 27.747849 0.000000 0.000000 0.000000 7.125000 0.000000 0.000000 -87.079114 -68.234709 -110.340109
19.811801 16.518191 6.816423 -4.270317 -7.332754 8.497751 0.000000 0.000000 0.000000 -12.922439 -6.769037 -41.013585 4.153367 12.361702 37.023884 -0.378545 14.713975 -16.040941 5.647140 14.077336 43.548494 0.000000 0.000000 0.000000 5.638072 18.862187 -35.294665 -15.078629 -19.408949 75.473245 -1.668733 14.739245 33.500997 -1.341826 -7.333028 20.706224 -2.429651 2.999960 8.067659 1.466824 3.818729 2.810430 2.505718 1.892949 -1.864821 5.823381 2.121795 -9.732261 -6.080111 2.824364 12.425708 -2.649234 1.226061 5.510585 0.000000 0.000000 0.000000 7.981355 25.655801 -28.432493 70.595426 -58.513910 43.280304 24.865901 1.344670 0.904109 0.000000 0.000000 0.000000 -7.125000 0.000000 0.000000 -1.343787 28.965416 -0.493902 0.000000 0.000000 0.000000 -18.277625 -7.071335 12.667568 -57.864400 -55.709327 -32.571204 -65.200731 49.138338 26.552657 0.000000 0.000000 0.000000 7.125000 0.000000 0.000000 -66.152445 69.515588 45.211080
